<svg width="512" height="512" viewBox="0 0 512 512" fill="none" xmlns="http://www.w3.org/2000/svg">
  <defs>
    <linearGradient id="agri_gradient" x1="0" y1="0" x2="512" y2="512" gradientUnits="userSpaceOnUse">
      <stop stop-color="#10b981" /> <!-- Emerald-500 -->
      <stop offset="1" stop-color="#0ea5e9" /> <!-- Sky-500 -->
    </linearGradient>
    <filter id="soft_shadow" x="-20%" y="-20%" width="140%" height="140%">
      <feDropShadow dx="0" dy="10" stdDeviation="15" flood-opacity="0.15"/>
    </filter>
  </defs>

  <!-- Background Squircle -->
  <rect x="32" y="32" width="448" height="448" rx="128" fill="url(#agri_gradient)" filter="url(#soft_shadow)" />

  <!-- Leaf Icon -->
  <path 
    d="M256 400 C170 400 112 340 112 256 C112 140 256 90 256 90 C256 90 400 140 400 256 C400 340 342 400 256 400 Z M256 90 L256 400" 
    stroke="white" 
    stroke-width="32" 
    stroke-linecap="round" 
    stroke-linejoin="round" 
    fill="none"
  />
  
  <!-- Leaf Veins -->
  <path d="M256 320 C290 300 320 250 320 250" stroke="white" stroke-width="32" stroke-linecap="round"/>
  <path d="M256 240 C220 220 192 180 192 180" stroke="white" stroke-width="32" stroke-linecap="round"/>
</svg>